Coordinates
version=1
nRows=17
nColumns=24
inDegrees=yes

Units are S.I. units (second, meters, Newtons, ...)
Angles are in degrees.

endheader
time	pelvis_tilt	pelvis_list	pelvis_rotation	pelvis_tx	pelvis_ty	pelvis_tz	hip_flexion_r	hip_adduction_r	hip_rotation_r	knee_angle_r	ankle_angle_r	subtalar_angle_r	mtp_angle_r	hip_flexion_l	hip_adduction_l	hip_rotation_l	knee_angle_l	ankle_angle_l	subtalar_angle_l	mtp_angle_l	lumbar_extension	lumbar_bending	lumbar_rotation
      1.19616667	     -2.52585675	     -1.95811405	    -12.38026896	     -0.03498423	      0.88197659	      0.35237495	    -18.72021172	      3.74900659	      5.47312389	     -6.70623971	     15.67510425	      9.33934709	     10.00869540	     27.90380992	     -6.24613875	    -13.15963847	      2.14164733	      0.45141758	     -7.12877714	     -2.47434381	     -6.74604149	      3.08173732	     11.56885102
      1.20033333	     -2.64339433	     -1.84839243	    -12.46827269	     -0.02929525	      0.88107271	      0.35231797	    -18.70198503	      3.56049004	      5.47685612	     -7.19905905	     15.62229792	      9.41626635	     10.19410708	     28.10182347	     -6.18169797	    -13.08720444	      1.61097595	      0.39281832	     -7.33761557	     -2.45626844	     -6.58352526	      2.85185159	     11.67281971
      1.20450000	     -2.72822525	     -1.73001864	    -12.53892992	     -0.02353430	      0.88026041	      0.35221167	    -18.71061379	      3.35701993	      5.44034319	     -7.70583938	     15.52543165	      9.47765937	     10.50186115	     28.25350633	     -6.08775754	    -13.01483061	      1.06249990	      0.27044390	     -7.61758224	     -2.41517570	     -6.43122290	      2.61801839	     11.74850869
      1.20866667	     -2.78284629	     -1.59147076	    -12.58608906	     -0.01769403	      0.87953139	      0.35207287	    -18.75949796	      3.13215963	      5.41725651	     -8.19096954	     15.34309423	      9.45844041	     10.74743661	     28.36236702	     -5.95285767	    -12.93437934	      0.50202679	      0.13782897	     -7.88372659	     -2.37503063	     -6.31213929	      2.33595881	     11.75713864
      1.21283333	     -2.85715879	     -1.45293905	    -12.61942298	     -0.01182574	      0.87881761	      0.35188280	    -18.75958158	      2.91359399	      5.36216080	     -8.73108007	     15.15487674	      9.47962152	     11.08342102	     28.48827692	     -5.80830290	    -12.81779507	     -0.07524451	     -0.09278844	     -8.25399349	     -2.31335738	     -6.16187405	      2.07261856	     11.76908526
      1.21700000	     -2.85953193	     -1.30702105	    -12.63898354	     -0.00589701	      0.87825857	      0.35164271	    -18.83375741	      2.66959693	      5.28926995	     -9.26317294	     14.83978678	      9.40703030	     15.29180930	     28.52036889	     -5.62707600	    -12.72598362	     -0.64044399	     -0.39797461	     -8.68276193	     -1.41192886	     -6.11547764	      1.80070536	     11.73767328
      1.22116667	     -2.93969071	     -1.14998261	    -12.63066203	      0.00009375	      0.87762781	      0.35137519	    -18.81360174	      2.44303341	      5.21095005	     -9.82409266	     14.53193933	      9.40508266	     15.33732990	     28.65256135	     -5.44074119	    -12.60686982	     -1.26099976	     -0.69505579	     -8.99323138	     -1.39626565	     -5.93632634	      1.51075938	     11.73202423
      1.22533333	     -2.97867685	     -0.98489190	    -12.60381264	      0.00611780	      0.87709507	      0.35102246	    -18.80877321	      2.19748812	      5.07952328	    -10.44136590	     14.25236547	      9.44068315	     15.57597362	     28.71371754	     -5.20862816	    -12.40007922	     -1.82880447	     -1.10960548	     -9.59064166	     -1.32166617	     -5.82212466	      1.21988237	     11.69328579
      1.22950000	     -3.04982161	     -0.79886083	    -12.58536329	      0.01220475	      0.87658370	      0.35070213	    -18.75571625	      1.93880921	      4.99751946	    -11.07463442	     13.88366877	      9.39492500	     15.70946313	     28.81384529	     -4.97368725	    -12.30726493	     -2.42498016	     -1.55519752	     -9.95570133	     -1.28623250	     -5.64298889	      0.88284745	     11.62922814
      1.23366667	     -3.10605920	     -0.62307301	    -12.52775407	      0.01829420	      0.87612300	      0.35025150	    -18.68573238	      1.69156122	      4.84251018	    -11.77959676	     13.54168353	      9.43371219	     16.03470276	     28.88657957	     -4.70566965	    -12.06581452	     -2.98691999	     -2.11303838	    -10.65881581	     -1.19932106	     -5.51156530	      0.60553206	     11.53901258
      1.23783333	     -3.15929059	     -0.42230818	    -12.45869589	      0.02445955	      0.87572075	      0.34978566	    -18.60804785	      1.42029758	      4.68155022	    -12.49330640	     13.11942816	      9.44293499	     16.47824225	     28.95155500	     -4.40542310	    -11.86166994	     -3.54394169	     -2.69472359	    -11.27521610	     -1.08469491	     -5.36268571	      0.26780698	     11.43040239
      1.24200000	     -3.22072615	     -0.21457799	    -12.37319534	      0.03065996	      0.87535411	      0.34927985	    -18.49961333	      1.14646250	      4.50591482	    -13.24616854	     12.65256264	      9.44487500	     17.01307868	     29.02937969	     -4.08950685	    -11.66019743	     -4.11057708	     -3.29794765	    -11.88588326	     -0.95173845	     -5.19749829	     -0.07208494	     11.31206705
      1.24616667	     -3.27689527	      0.00259016	    -12.27182714	      0.03690762	      0.87504537	      0.34872729	    -18.37735230	      0.86313565	      4.30727564	    -14.03087767	     12.13859752	      9.44965284	     17.61484488	     29.10116094	     -3.75158533	    -11.45898753	     -4.67768812	     -3.92132394	    -12.49210089	     -0.80805411	     -5.03544228	     -0.42413135	     11.18209158
      1.25033333	     -3.29684488	      0.23393077	    -12.13842887	      0.04323300	      0.87483688	      0.34813840	    -18.29530537	      0.56323705	      4.06545244	    -14.79080544	     11.43319522	      9.36395203	     22.75230891	     29.14434451	     -3.38274702	    -11.29828253	     -5.27247940	     -4.47437573	    -12.95756161	      0.43634455	     -4.91364990	     -0.82588541	     11.09253576
      1.25450000	     -3.37468592	      0.46937063	    -12.01061482	      0.04955995	      0.87460113	      0.34755456	    -18.11571925	      0.27423154	      3.87467498	    -15.62650354	     10.78801628	      9.34992284	     22.79881315	     29.26229727	     -3.02890104	    -11.17016109	     -5.90081514	     -5.01479187	    -13.34534173	      0.44701704	     -4.71326432	     -1.22169308	     10.94854768
      1.25866667	     -3.44112420	      0.69471804	    -11.85753118	      0.05584643	      0.87440859	      0.34684466	    -17.88765233	     -0.01164888	      3.59088569	    -16.58530422	     10.21125040	      9.40379496	     22.98678413	     29.35772494	     -2.64846542	    -10.89517969	     -6.49608427	     -5.64789706	    -14.07499489	      0.48226269	     -4.55678586	     -1.54673318	     10.75057182
      1.26283333	     -3.49965705	      0.94267786	    -11.68786341	      0.06220676	      0.87427818	      0.34613522	    -17.66453552	     -0.31830723	      3.30621433	    -17.53701600	      9.53521144	      9.43804589	     23.29902357	     29.45234891	     -2.24401328	    -10.66477649	     -7.11781670	     -6.20044470	    -14.64992350	      0.53492838	     -4.39257681	     -1.93605358	     10.57637247
